<svg xmlns="http://www.w3.org/2000/svg" viewBox="0 0 64 32" role="img" aria-label="United States flag"><rect width="64" height="32" fill="#b22234"/><g fill="#fff"><rect y="4" width="64" height="2"/><rect y="8" width="64" height="2"/><rect y="12" width="64" height="2"/><rect y="16" width="64" height="2"/><rect y="20" width="64" height="2"/><rect y="24" width="64" height="2"/><rect y="28" width="64" height="2"/></g><rect width="28" height="18" fill="#3c3b6e"/><g fill="#fff" font-size="2.6" font-family="system-ui" text-anchor="middle"><text x="4" y="4.5">★</text><text x="8" y="4.5">★</text><text x="12" y="4.5">★</text><text x="16" y="4.5">★</text><text x="20" y="4.5">★</text><text x="24" y="4.5">★</text><text x="6" y="7.5">★</text><text x="10" y="7.5">★</text><text x="14" y="7.5">★</text><text x="18" y="7.5">★</text><text x="22" y="7.5">★</text><text x="26" y="7.5">★</text><text x="4" y="10.5">★</text><text x="8" y="10.5">★</text><text x="12" y="10.5">★</text><text x="16" y="10.5">★</text><text x="20" y="10.5">★</text><text x="24" y="10.5">★</text></g></svg>